<svg width="162" height="194" viewBox="0 0 162 194" fill="none" xmlns="http://www.w3.org/2000/svg">
<path d="M7.48528 191.893C5.83528 190.874 3.58528 189.029 2.48528 187.793C0.541558 185.608 0.477967 183.937 0.225453 128.399C-0.022595 73.844 0.0513778 71.1142 1.8574 68.1738C5.31079 62.5512 8.66792 61.7538 28.8864 61.7538H46.9853L46.989 36.0038C46.9944 -1.09075 45.7158 0.253824 80.9853 0.253824C116.079 0.253824 114.981 -0.916702 114.984 36.5038L114.985 61.7538H133.084C153.415 61.7538 156.417 62.4805 159.994 68.2673C161.993 71.5026 162.028 72.6957 161.759 128.581L161.485 185.594L158.985 188.269C153.642 193.986 156.951 193.754 80.7849 193.75C14.0927 193.746 10.3313 193.651 7.48528 191.893ZM150.068 180.988L152.985 177.722V128.285C152.985 92.086 152.665 78.1458 151.791 76.2259C149.252 70.6535 150.55 70.7538 80.9692 70.7538C35.7173 70.7538 16.2112 71.0825 14.6695 71.8709C8.813 74.8659 9.03176 72.7194 9.00752 127.427L8.98528 177.6L11.5194 180.612C12.9132 182.268 15.0507 183.823 16.2694 184.067C17.4881 184.31 47.4349 184.452 82.8178 184.382L147.15 184.254L150.068 180.988ZM105.985 39.903C105.985 17.3354 105.321 12.5391 101.946 10.7327C100.928 10.1882 91.2813 9.75382 80.206 9.75382C61.2411 9.75382 60.2048 9.85372 58.3903 11.8567C56.6482 13.7797 56.4596 16.0036 56.1848 37.8567L55.8843 61.7538H80.9348H105.985V39.903ZM78.8988 46.7143C69.0479 44.0483 65.0379 33.1062 70.8965 24.8785C73.9193 20.6334 80.5415 18.288 85.6335 19.6591C94.0856 21.935 98.5533 31.8872 94.5758 39.5788C91.8237 44.9008 84.5056 48.2316 78.8988 46.7143ZM86.053 35.6273C88.7189 30.646 83.0598 26.5664 78.814 30.4088C76.5549 32.4533 76.5193 33.5815 78.6403 35.9251C80.885 38.4054 84.6471 38.2543 86.053 35.6273Z" fill="#4A276D"/>
</svg>
